<svg width="32" height="27" viewBox="0 0 32 27" fill="none" xmlns="http://www.w3.org/2000/svg">
<path d="M12.3942 3.07006C11.8387 3.60524 10.9758 3.66472 10.2372 3.40672C8.47848 2.79242 6.54853 3.07176 5.18213 4.19425C2.68321 6.25215 2.54053 9.98829 4.7922 12.229L16.0027 23.391L27.2125 12.2296C29.4597 9.98856 29.3159 6.25194 26.8167 4.19404C24.8247 2.55786 21.6332 2.71507 19.5308 4.81106L17.1614 7.16547C16.5256 7.79719 15.4735 7.79719 14.8377 7.16547C14.2198 6.55149 14.2308 5.5726 14.8623 4.97159L15.9995 3.88921L17.2308 2.66579C17.541 2.35648 17.8705 2.0728 18.2156 1.81544C21.3605 -0.529704 25.8068 -0.689972 28.893 1.84616C32.818 5.07646 33.0242 10.8741 29.5118 14.3756L17.4183 26.4169C16.637 27.1944 15.3683 27.1944 14.5871 26.4169L2.49355 14.3756C-1.02513 10.8741 -0.818886 5.07646 3.10604 1.84616C5.68004 -0.269036 9.19657 -0.508625 12.1195 0.830636C13.0249 1.24548 13.1032 2.38713 12.3942 3.07006Z" fill="white"/>
</svg>
